<svg width="165" height="60" viewBox="0 0 165 60" fill="none" xmlns="http://www.w3.org/2000/svg">
<g id="CampusSantPau-Positiu 1">
<g id="Group 13">
<path id="Vector" d="M10.0539 19.9999L0.0769043 30L10.0539 40.0001L20.0309 30L10.0539 19.9999Z" fill="#41A773"/>
<path id="Vector_2" d="M30.0083 -7.14207e-05L20.0312 10L30.0083 20.0001L39.9853 10L30.0083 -7.14207e-05Z" fill="#71478F"/>
<path id="Vector_3" d="M30.0083 39.9998L20.0312 49.9999L30.0083 59.9999L39.9853 49.9999L30.0083 39.9998Z" fill="#EDA333"/>
<path id="Vector_4" d="M49.9624 20.001L39.9854 30.0011L49.9624 40.0012L59.9394 30.0011L49.9624 20.001Z" fill="#2879B6"/>
<path id="Vector_5" d="M30.0083 19.9997L20.0312 29.9998L30.0083 39.9998L39.9853 29.9998L30.0083 19.9997Z" fill="#E87520"/>
<path id="Vector_6" d="M72.3643 15.496H73.0111C73.0516 15.6878 73.1055 15.8764 73.1725 16.0606C73.2514 16.2883 73.3603 16.5508 73.4955 16.8482C73.6383 17.1565 73.8123 17.4494 74.0146 17.7223C74.2222 18.0061 74.4526 18.2723 74.7037 18.5183C74.9609 18.768 75.2607 18.9694 75.5889 19.113C75.9253 19.2635 76.2898 19.3407 76.6582 19.3398C77.3497 19.3398 77.8645 19.1751 78.2024 18.8458C78.368 18.6839 78.4983 18.4893 78.5851 18.2744C78.6719 18.0595 78.7132 17.8289 78.7066 17.5971C78.7128 17.2758 78.641 16.9577 78.4972 16.6703C78.3654 16.4102 78.172 16.1863 77.934 16.0183C77.6767 15.8426 77.4017 15.6947 77.1135 15.577C76.8056 15.4515 76.4814 15.332 76.1409 15.2185C75.8005 15.1049 75.4591 14.9882 75.1167 14.8684C74.7785 14.7498 74.4525 14.5989 74.1432 14.4177C73.845 14.2447 73.5697 14.0348 73.3237 13.793C73.0709 13.532 72.8786 13.2185 72.7604 12.8746C72.6143 12.4606 72.5434 12.0237 72.5511 11.5846C72.5439 11.11 72.6268 10.6384 72.7952 10.1948C72.9348 9.81695 73.1501 9.47175 73.4279 9.18049C73.6911 8.91351 73.9958 8.69107 74.33 8.52184C74.6527 8.35241 74.9961 8.22588 75.3514 8.14546C75.6867 8.07254 76.0288 8.03595 76.3718 8.03631C76.7816 8.0331 77.1906 8.07252 77.5922 8.15393C77.8968 8.21374 78.197 8.29422 78.4906 8.39481C78.6261 8.45231 78.7679 8.49338 78.9131 8.51713C78.9567 8.51848 79.0001 8.51082 79.0407 8.49463C79.0812 8.47844 79.118 8.45408 79.1487 8.42304C79.207 8.36878 79.2493 8.29942 79.2708 8.22262L79.3064 8.12853H79.8997C79.8997 8.32706 79.8932 8.59899 79.8819 8.92926C79.8706 9.25953 79.8641 9.52769 79.8641 9.72059C79.8641 10.0236 79.8706 10.3745 79.8819 10.7744C79.8932 11.1743 79.8997 11.4576 79.8997 11.6269H79.3008C79.2603 11.4166 79.1973 11.2112 79.113 11.0144C79.0008 10.7444 78.8638 10.4855 78.7037 10.2409C78.5278 9.96341 78.3229 9.7054 78.0926 9.47124C77.8512 9.23002 77.5693 9.0332 77.2599 8.88974C76.9378 8.73414 76.5848 8.65341 76.2273 8.65357C75.6922 8.65357 75.2575 8.80224 74.9233 9.09957C74.7594 9.24165 74.629 9.41857 74.5418 9.61747C74.4546 9.81636 74.4127 10.0322 74.4192 10.2494C74.4133 10.5463 74.4886 10.8392 74.637 11.0962C74.7812 11.3399 74.9818 11.5451 75.2219 11.6947C75.4891 11.8608 75.7721 12.0002 76.0667 12.1106C76.384 12.2329 76.7173 12.3496 77.0665 12.4606C77.4158 12.5716 77.7659 12.6911 78.117 12.8191C78.467 12.9463 78.8032 13.1086 79.1206 13.3037C79.4303 13.4921 79.7143 13.7202 79.9654 13.9821C80.2262 14.2657 80.4253 14.6006 80.5503 14.9654C80.7018 15.4055 80.7755 15.8688 80.7681 16.3344C80.7799 16.9142 80.6636 17.4894 80.4273 18.0187C80.2236 18.4781 79.9035 18.8761 79.4989 19.1732C79.1002 19.4594 78.6557 19.6755 78.1846 19.8121C77.6726 19.958 77.1425 20.0299 76.6103 20.0257C76.0884 20.0291 75.5676 19.9748 75.0576 19.8639C74.6693 19.7833 74.2873 19.6755 73.9142 19.5411C73.7522 19.468 73.5824 19.4137 73.4082 19.3793C73.3043 19.3758 73.2032 19.4133 73.1265 19.4837C73.059 19.5406 73.0102 19.6167 72.9867 19.702L72.9604 19.8074H72.368C72.368 19.5214 72.378 19.1481 72.3981 18.6877C72.4181 18.2273 72.4284 17.8543 72.429 17.5689C72.429 17.2898 72.4187 16.9341 72.3981 16.5019C72.3736 16.071 72.3643 15.735 72.3643 15.496Z" fill="white"/>
<path id="Vector_7" d="M93.318 19.6673C92.9688 19.6673 92.505 19.6557 91.9267 19.6324C91.3485 19.6092 90.9486 19.5976 90.727 19.5976C90.4247 19.5976 89.9159 19.6092 89.2006 19.6324C88.4852 19.6557 87.9179 19.6673 87.4986 19.6673V19.0557L89.2259 18.9681L88.0487 15.6749H84.533L83.9951 17.0882C83.7154 17.7932 83.7122 18.2973 83.9857 18.6002C84.2592 18.9032 84.8059 19.055 85.6258 19.0557V19.6673H85.1874C84.9946 19.6673 84.6413 19.6557 84.1275 19.6324C83.6137 19.6092 83.2282 19.5976 82.9709 19.5976C82.7963 19.5976 82.5288 19.6092 82.1683 19.6324C81.8078 19.6557 81.5112 19.6673 81.2783 19.6673H80.9028V19.0557C81.1395 19.0605 81.376 19.0412 81.6088 18.9983C81.8118 18.9489 82.0032 18.86 82.172 18.7367C82.3968 18.5684 82.5826 18.3533 82.7165 18.1062C82.9218 17.7464 83.0982 17.3707 83.2441 16.9828L86.5861 8.20386H88.0168L91.9249 18.9681L93.3208 19.0557L93.318 19.6673ZM86.3298 10.8968L84.7771 15.0153H87.8131L86.374 10.8968H86.3298Z" fill="white"/>
<path id="Vector_8" d="M96.9626 8.38738L102.537 16.7118H102.555V11.037C102.56 10.7227 102.531 10.4087 102.467 10.1008C102.424 9.88421 102.346 9.67607 102.237 9.48451C102.14 9.33032 102.002 9.20617 101.839 9.12601C101.676 9.04387 101.501 8.98798 101.32 8.96041C101.102 8.93155 100.883 8.91834 100.663 8.92089V8.31775C100.971 8.31775 101.355 8.32935 101.815 8.35256C102.274 8.37609 102.618 8.38738 102.848 8.38738C103.078 8.38738 103.411 8.37609 103.851 8.35256C104.292 8.32904 104.668 8.31775 104.978 8.31775V8.92089C104.75 8.91611 104.523 8.9411 104.302 8.99522C104.109 9.04972 103.93 9.14609 103.778 9.2775C103.592 9.45129 103.461 9.67659 103.402 9.92487C103.309 10.2873 103.267 10.661 103.276 11.0352V19.4904L101.173 19.6485L95.5985 11.1801H95.5807V17.0204C95.5715 17.3883 95.6097 17.7558 95.6943 18.1138C95.7463 18.3572 95.8786 18.576 96.0698 18.7348C96.2358 18.8631 96.4282 18.9527 96.6331 18.9974C96.9024 19.0435 97.1756 19.064 97.4488 19.0585V19.6673C97.1409 19.6673 96.757 19.6557 96.297 19.6325C95.8379 19.609 95.4943 19.5977 95.2643 19.5977C95.0343 19.5977 94.7011 19.609 94.2608 19.6325C93.8205 19.656 93.4441 19.6673 93.1343 19.6673V19.0557C93.3614 19.0599 93.5884 19.0394 93.8111 18.9945C94.0029 18.9461 94.1825 18.8583 94.3387 18.7367C94.5321 18.5757 94.6681 18.3561 94.7264 18.111C94.8197 17.7543 94.8624 17.3862 94.8532 17.0176V10.6786C94.8584 10.4054 94.8246 10.1329 94.7527 9.86935C94.704 9.68145 94.6196 9.50476 94.5039 9.34901C94.4 9.2228 94.2669 9.12396 94.1162 9.06109C93.9748 8.9964 93.825 8.95206 93.6712 8.92936C93.5045 8.91046 93.3368 8.90166 93.169 8.90301V8.31775L96.9626 8.38738Z" fill="white"/>
<path id="Vector_9" d="M107.923 8.35242C108.973 8.37626 109.803 8.38786 110.414 8.38724C111.025 8.38661 111.846 8.375 112.878 8.35242C113.911 8.32921 114.703 8.31761 115.256 8.31761L115.457 12.3043H114.846L114.706 11.7708C114.663 11.5934 114.611 11.4184 114.549 11.2467C114.46 11.0034 114.353 10.7666 114.231 10.5382C114.095 10.2777 113.938 10.029 113.761 9.79487C113.586 9.56978 113.372 9.37847 113.129 9.23031C112.89 9.07742 112.614 8.99552 112.331 8.99414H111.702V18.985L113.473 19.0555V19.6672C113.165 19.6672 112.658 19.6555 111.95 19.6323C111.243 19.6091 110.73 19.5975 110.411 19.5975C110.09 19.5975 109.57 19.6091 108.85 19.6323C108.129 19.6555 107.615 19.6672 107.305 19.6672V19.0555L109.076 18.985V8.99037H108.448C108.168 8.99263 107.894 9.07453 107.658 9.22655C107.414 9.37516 107.199 9.56636 107.022 9.79111C106.843 10.0237 106.686 10.2726 106.553 10.5344C106.433 10.7657 106.326 11.0039 106.234 11.2477C106.171 11.4178 106.117 11.5912 106.073 11.7671L105.925 12.3006H105.323L105.511 8.31384C106.069 8.31635 106.873 8.32921 107.923 8.35242Z" fill="white"/>
<path id="Vector_10" d="M121.934 8.95569L120.503 8.92087V8.31774C120.776 8.31774 121.224 8.32338 121.847 8.33467C122.469 8.34596 122.897 8.35192 123.13 8.35255C123.35 8.35255 123.804 8.34659 124.49 8.33467C125.177 8.32275 125.683 8.31711 126.008 8.31774C126.487 8.31553 126.965 8.34697 127.439 8.41183C127.857 8.46927 128.266 8.57504 128.659 8.72704C129.01 8.85762 129.333 9.05153 129.614 9.29913C129.88 9.54721 130.088 9.85204 130.221 10.1911C130.375 10.5866 130.451 11.0086 130.443 11.4332C130.443 12.5115 130.053 13.3451 129.274 13.9342C128.495 14.5232 127.46 14.8177 126.169 14.8177H124.528V18.9879L126.317 19.0585V19.6673C126.096 19.6673 125.61 19.6557 124.86 19.6325C124.11 19.6093 123.558 19.5977 123.202 19.5977C122.941 19.5977 122.49 19.6093 121.85 19.6325C121.209 19.6557 120.762 19.6673 120.506 19.6673V19.0557L121.937 18.9851L121.934 8.95569ZM124.525 8.92087V14.2023H125.634C125.991 14.2131 126.345 14.1366 126.666 13.9793C126.941 13.8381 127.165 13.6153 127.308 13.3414C127.452 13.0653 127.555 12.7691 127.613 12.4626C127.675 12.1103 127.704 11.7531 127.7 11.3955C127.7 10.5907 127.546 9.97723 127.238 9.55506C126.93 9.1329 126.372 8.9215 125.562 8.92087H124.525Z" fill="white"/>
<path id="Vector_11" d="M141.456 19.6673C141.106 19.6673 140.642 19.6557 140.064 19.6324C139.485 19.6092 139.085 19.5976 138.865 19.5976C138.561 19.5976 138.052 19.6092 137.337 19.6324C136.623 19.6557 136.056 19.6673 135.636 19.6673V19.0557L137.364 18.9681L136.186 15.6749H132.67L132.129 17.0919C131.85 17.797 131.847 18.301 132.121 18.604C132.394 18.907 132.941 19.0588 133.761 19.0594V19.6673H133.324C133.133 19.6673 132.779 19.6557 132.264 19.6324C131.749 19.6092 131.364 19.5976 131.109 19.5976C130.934 19.5976 130.666 19.6092 130.306 19.6324C129.945 19.6557 129.649 19.6673 129.416 19.6673H129.041V19.0557C129.277 19.0605 129.514 19.0413 129.747 18.9983C129.951 18.9492 130.142 18.8603 130.311 18.7367C130.536 18.5685 130.722 18.3534 130.856 18.1062C131.058 17.7461 131.232 17.3704 131.375 16.9828L134.716 8.20386H136.147L140.056 18.9681L141.452 19.0557L141.456 19.6673ZM134.468 10.8968L132.915 15.0153H135.951L134.511 10.8968H134.468Z" fill="white"/>
<path id="Vector_12" d="M145.014 9.01684V14.7443C145.014 16.1243 145.211 17.1299 145.604 17.7609C145.997 18.392 146.621 18.7056 147.475 18.7019C147.713 18.7034 147.95 18.6756 148.182 18.6191C148.433 18.5493 148.671 18.437 148.884 18.2869C149.138 18.1131 149.353 17.889 149.517 17.6283C149.721 17.281 149.868 16.9029 149.952 16.5086C150.076 15.968 150.135 15.4146 150.127 14.86V11.054C150.136 10.6788 150.095 10.3041 150.005 9.9399C149.947 9.68955 149.813 9.46342 149.621 9.29254C149.458 9.1557 149.265 9.05903 149.058 9.01026C148.804 8.95801 148.544 8.93435 148.285 8.93969V8.33655C148.594 8.33655 148.971 8.34878 149.42 8.37136C149.869 8.39394 150.202 8.40712 150.423 8.40712C150.643 8.40712 150.97 8.39489 151.4 8.37136C151.83 8.34784 152.203 8.33655 152.517 8.33655V8.94063C152.288 8.93578 152.059 8.96077 151.836 9.01496C151.646 9.07003 151.47 9.1664 151.321 9.29724C151.138 9.47171 151.012 9.69731 150.96 9.9446C150.873 10.3081 150.833 10.6812 150.841 11.0549V14.9024C150.841 18.2145 149.433 19.8702 146.617 19.8696C143.75 19.8696 142.316 18.418 142.316 15.5149V9.01684L140.921 8.94063V8.33749C141.189 8.33749 141.674 8.34909 142.378 8.3723C143.082 8.39551 143.519 8.40743 143.687 8.40806C143.856 8.40806 144.266 8.39614 144.917 8.3723C145.568 8.34847 146.027 8.33686 146.296 8.33749V8.94063L145.014 9.01684Z" fill="white"/>
<path id="Vector_13" d="M71.995 30.7167C71.9833 29.9525 72.088 29.191 72.3057 28.4585C72.5135 27.7973 72.7829 27.2613 73.114 26.8504C73.4431 26.4423 73.8428 26.0968 74.294 25.8305C74.7183 25.5724 75.1801 25.3819 75.6627 25.2659C76.1348 25.1598 76.6172 25.1071 77.1009 25.1088C77.4573 25.105 77.8128 25.1442 78.1599 25.2254C78.4141 25.2835 78.6628 25.3635 78.9034 25.4644C79.0053 25.5188 79.1138 25.5596 79.2263 25.5858C79.2915 25.5872 79.3554 25.5674 79.4084 25.5294C79.4519 25.4995 79.489 25.4611 79.5173 25.4165L79.5417 25.3591H80.1313C80.1313 25.5651 80.1256 25.806 80.1153 26.0845C80.105 26.363 80.0993 26.6011 80.0993 26.8006C80.0993 27.1195 80.0993 27.4451 80.1153 27.7773C80.1313 28.1094 80.1313 28.3644 80.1313 28.5422H79.5417C79.4985 28.354 79.4478 28.1602 79.3803 27.9636C79.2921 27.7107 79.1867 27.4643 79.0648 27.2259C78.9322 26.9526 78.768 26.6958 78.5757 26.4609C78.3776 26.2299 78.1378 26.0384 77.8688 25.8963C77.5791 25.7374 77.2538 25.6551 76.9235 25.6573C75.9847 25.6573 75.2375 26.0704 74.6817 26.8965C74.126 27.7227 73.8472 28.8832 73.8453 30.378C73.8365 31.0788 73.907 31.7783 74.0556 32.4631C74.1958 33.0703 74.3748 33.5533 74.5926 33.9121C74.7907 34.2525 75.0505 34.5528 75.3586 34.7976C75.6098 35.0019 75.8961 35.1584 76.2035 35.2596C76.4736 35.3406 76.7542 35.3815 77.0362 35.3809C77.3204 35.382 77.6039 35.3505 77.881 35.2869C78.1193 35.2349 78.3501 35.1533 78.5682 35.0441C78.7537 34.9478 78.9319 34.8381 79.1014 34.7157C79.2494 34.6116 79.3848 34.4906 79.5051 34.3553C79.6102 34.2339 79.7004 34.1239 79.7755 34.0232C79.8353 33.9478 79.8893 33.8679 79.9369 33.7842L79.9858 33.6901L80.4946 33.9724C80.4794 34.0159 80.4606 34.0581 80.4382 34.0985C80.4113 34.1493 80.3487 34.2518 80.2505 34.4061C80.1531 34.5605 80.0452 34.708 79.9276 34.8474C79.7786 35.0169 79.6149 35.1728 79.4385 35.3132C79.231 35.4833 79.0064 35.6312 78.7682 35.7545C78.4903 35.8921 78.1973 35.9966 77.8951 36.0659C77.5394 36.1515 77.1748 36.1938 76.809 36.192C76.154 36.2002 75.5027 36.0919 74.8854 35.8721C74.3156 35.6625 73.7976 35.3323 73.3665 34.9039C72.9284 34.4717 72.5905 33.9009 72.3527 33.1914C72.1002 32.3914 71.9794 31.5556 71.995 30.7167Z" fill="white"/>
<path id="Vector_14" d="M88.2735 34.4493L88.8152 34.5792C88.806 34.6325 88.7938 34.6853 88.7786 34.7373C88.7366 34.8595 88.6855 34.9784 88.6256 35.0929C88.5472 35.2553 88.4478 35.4065 88.3299 35.5427C88.1881 35.6934 88.0181 35.8146 87.8295 35.8993C87.6001 36.0091 87.3486 36.0645 87.0945 36.0612C86.3234 36.0612 85.8331 35.6669 85.6234 34.8784H85.5905C85.1055 35.7315 84.3595 36.1581 83.3525 36.1581C83.0525 36.1597 82.7536 36.1198 82.4645 36.0395C82.1798 35.9594 81.9089 35.8366 81.6609 35.6754C81.3957 35.5007 81.1844 35.2553 81.0507 34.9669C80.8928 34.6275 80.8154 34.2562 80.8244 33.882C80.8203 33.6055 80.8724 33.3312 80.9775 33.0756C81.07 32.8502 81.2059 32.6452 81.3774 32.4724C81.5604 32.2981 81.7722 32.157 82.0035 32.0556C82.2506 31.9417 82.5077 31.851 82.7714 31.7846C83.0693 31.7127 83.3716 31.6612 83.6764 31.6303C84.0206 31.5927 84.3357 31.5698 84.6217 31.5616C84.9078 31.5535 85.231 31.5494 85.5915 31.5494L85.6074 31.0789C85.6131 30.7766 85.6131 30.4971 85.6074 30.2405C85.6044 30.0048 85.576 29.7701 85.523 29.5405C85.479 29.3485 85.4039 29.1651 85.3005 28.9976C85.201 28.8442 85.0591 28.7232 84.8921 28.6494C84.6893 28.5629 84.4703 28.5215 84.25 28.528C84.0287 28.5263 83.8079 28.5519 83.5929 28.6043C83.4218 28.6431 83.258 28.7088 83.1075 28.799C83.008 28.8614 82.9138 28.9319 82.8259 29.0098C82.7699 29.059 82.7198 29.1146 82.6766 29.1754C82.7094 29.1962 82.7408 29.2192 82.7705 29.2441C82.8299 29.3093 82.879 29.3832 82.916 29.4633C82.9778 29.5791 83.01 29.7084 83.0099 29.8397C83.0124 29.9404 82.9943 30.0405 82.9566 30.1339C82.919 30.2273 82.8627 30.3119 82.7912 30.3826C82.7154 30.4563 82.6255 30.5136 82.5268 30.5511C82.4282 30.5887 82.323 30.6056 82.2176 30.6009C82.1049 30.6027 81.993 30.5822 81.8883 30.5406C81.7836 30.4989 81.6881 30.4369 81.6074 30.3582C81.5204 30.2701 81.4528 30.1647 81.409 30.0488C81.3652 29.9329 81.3461 29.8091 81.353 29.6854C81.353 29.1836 81.6465 28.7708 82.2335 28.4471C82.8206 28.1234 83.5641 27.9619 84.464 27.9625C84.7923 27.9576 85.12 27.9891 85.4413 28.0566C85.6888 28.1061 85.9264 28.1964 86.1444 28.3239C86.3214 28.4328 86.4798 28.5694 86.6138 28.7285C86.7415 28.8769 86.8391 29.0488 86.9011 29.2347C86.9615 29.4196 87.0101 29.6082 87.0466 29.7992C87.083 29.9953 87.0985 30.1946 87.0926 30.3939C87.0869 30.5909 87.0869 30.7866 87.0926 30.9811L87.0118 34.3176C87.0006 34.6081 87.0463 34.8345 87.1489 34.997C87.1941 35.074 87.2592 35.1373 87.3374 35.1802C87.4156 35.2231 87.5039 35.244 87.5929 35.2407C87.6696 35.2395 87.745 35.2211 87.8136 35.1867C87.8822 35.1523 87.9422 35.1029 87.9891 35.0421C88.0926 34.9265 88.1698 34.7898 88.2153 34.6413L88.2735 34.4493ZM83.7891 35.3159C84.2372 35.3159 84.6374 35.135 84.9897 34.773C85.3421 34.4111 85.5264 33.9334 85.5427 33.34L85.5755 32.1092C85.0448 32.0977 84.514 32.1248 83.9871 32.1902C83.6473 32.2247 83.3177 32.3264 83.0174 32.4894C82.8172 32.6025 82.6541 32.7715 82.548 32.9758C82.4545 33.1956 82.4103 33.4333 82.4185 33.6721C82.4185 34.1796 82.5342 34.5804 82.7658 34.8746C82.9974 35.1688 83.3385 35.3159 83.7891 35.3159Z" fill="white"/>
<path id="Vector_15" d="M91.5246 35.2106L92.8661 35.2915V35.856C92.6158 35.856 92.2872 35.8451 91.8804 35.8231C91.4702 35.8024 91.0994 35.7911 90.7652 35.7911C90.431 35.7911 90.0611 35.8024 89.6537 35.8231C89.2462 35.8438 88.9149 35.856 88.6558 35.856V35.2915L89.9972 35.2106V29.7042C89.9977 29.6161 89.9924 29.5281 89.9813 29.4408C89.97 29.3627 89.9597 29.294 89.9494 29.2338C89.9395 29.1772 89.9126 29.125 89.8724 29.0841C89.832 29.0437 89.7992 29.0089 89.7785 28.9788C89.7372 28.9401 89.6851 28.9149 89.6293 28.9063L89.4603 28.8621C89.3858 28.8468 89.3101 28.8386 89.234 28.8376C89.1201 28.832 89.0338 28.8291 88.9749 28.8291H88.6595V28.2646L91.3913 28.1027L91.4476 29.6412H91.4796C91.7385 29.1605 92.1136 28.7526 92.5704 28.4547C93.0453 28.1469 93.6009 27.9877 94.1663 27.9974C94.4229 27.9932 94.6779 28.0385 94.9173 28.131C95.1153 28.2041 95.2978 28.3139 95.4552 28.4547C95.5925 28.5853 95.7119 28.7337 95.8101 28.896C95.897 29.0321 95.9691 29.1772 96.0251 29.3288C96.0654 29.4511 96.0983 29.5706 96.1255 29.6892H96.1584C96.4144 29.1955 96.7926 28.7759 97.2567 28.4707C97.7466 28.1515 98.321 27.9876 98.9052 28.0002C100.407 28.0002 101.158 28.9747 101.158 30.9237V35.2153L102.5 35.2962V35.8608C102.249 35.8608 101.921 35.8498 101.514 35.8278C101.107 35.8059 100.735 35.7952 100.399 35.7958C100.086 35.7958 99.7416 35.8071 99.3567 35.8278C98.9719 35.8485 98.6639 35.8608 98.4274 35.8608V35.2962L99.6309 35.2153V31.555C99.6309 31.3226 99.6309 31.1363 99.6309 30.9961C99.6309 30.8559 99.6187 30.6762 99.6027 30.4579C99.5922 30.2794 99.5681 30.102 99.5304 29.9272C99.4929 29.7772 99.4455 29.6297 99.3887 29.4859C99.3392 29.3474 99.2636 29.2196 99.1662 29.1095C99.0651 29.0039 98.9433 28.9205 98.8083 28.8646C98.6734 28.8087 98.5283 28.7816 98.3823 28.7849C98.1576 28.7901 97.9369 28.8457 97.7364 28.9477C97.4982 29.0643 97.2811 29.2202 97.0943 29.4088C96.8736 29.6383 96.7028 29.9113 96.593 30.2104C96.4574 30.5643 96.3901 30.9408 96.3949 31.3198V35.2153L97.6153 35.2962V35.8608C97.3775 35.8608 97.0665 35.8498 96.6822 35.8278C96.2964 35.8071 95.9481 35.7958 95.6355 35.7958C95.3229 35.7958 94.9652 35.8071 94.5775 35.8278C94.1898 35.8485 93.8744 35.8608 93.6322 35.8608V35.2962L94.8676 35.2153V31.1693C94.8676 31.0858 94.8638 30.955 94.8563 30.7769C94.8479 30.5981 94.8366 30.4579 94.8234 30.3553C94.8103 30.2528 94.7896 30.122 94.7634 29.963C94.7439 29.8325 94.7099 29.7047 94.662 29.5819C94.6154 29.4751 94.5627 29.3712 94.5043 29.2704C94.4502 29.1698 94.3776 29.0804 94.2902 29.007C94.2048 28.9404 94.1099 28.8871 94.0086 28.8489C93.8885 28.8042 93.7612 28.7822 93.6331 28.784C93.1049 28.784 92.6227 29.0446 92.1865 29.5659C91.7502 30.0872 91.5312 30.7552 91.5293 31.5701L91.5246 35.2106Z" fill="white"/>
<path id="Vector_16" d="M104.929 38.9932L106.619 39.0741V39.6387C106.369 39.6387 106.012 39.628 105.548 39.6067C105.084 39.5853 104.684 39.5744 104.348 39.5737C104.02 39.5737 103.652 39.5847 103.246 39.6067C102.84 39.6286 102.507 39.6393 102.248 39.6387V39.0741L103.452 38.9932V29.7043C103.452 29.6174 103.447 29.5307 103.436 29.4446C103.425 29.3693 103.414 29.3006 103.403 29.2385C103.395 29.1803 103.368 29.1262 103.327 29.0842C103.287 29.0437 103.254 29.0089 103.233 28.9788C103.192 28.9402 103.14 28.915 103.084 28.9064L102.91 28.8621C102.834 28.847 102.757 28.8388 102.68 28.8377C102.567 28.832 102.479 28.8292 102.417 28.8292H102.098V28.2646L104.829 28.1028L104.885 29.6892H104.902C105.183 29.1922 105.581 28.7721 106.062 28.466C106.565 28.1478 107.151 27.9843 107.746 27.9955C108.635 27.9955 109.329 28.3437 109.826 29.04C110.324 29.7363 110.574 30.6487 110.577 31.7772C110.582 32.2756 110.522 32.7725 110.399 33.2554C110.302 33.6515 110.138 34.028 109.914 34.3685C109.721 34.6533 109.493 34.9131 109.236 35.1419C109 35.3533 108.731 35.5243 108.44 35.6482C108.184 35.7581 107.919 35.8447 107.648 35.9069C107.413 35.96 107.173 35.9871 106.933 35.9878C106.114 35.9878 105.454 35.7802 104.953 35.3649H104.929V38.9932ZM107.127 28.8132C106.604 28.8132 106.112 29.0735 105.652 29.5942C105.197 30.1017 104.951 30.7629 104.962 31.445V34.6357C105.377 35.1438 105.977 35.3976 106.764 35.3969C108.218 35.3969 108.946 34.2794 108.946 32.0444C108.944 29.8903 108.337 28.8132 107.125 28.8132H107.127Z" fill="white"/>
<path id="Vector_17" d="M111.996 33.356V29.7353C111.998 29.6226 111.988 29.51 111.967 29.3994C111.951 29.3174 111.931 29.2364 111.907 29.1566C111.884 29.0877 111.837 29.0299 111.774 28.9948C111.706 28.9543 111.65 28.9214 111.604 28.9007C111.521 28.8686 111.434 28.8523 111.346 28.8527C111.22 28.8445 111.118 28.8389 111.039 28.8357C110.96 28.8357 110.826 28.8357 110.639 28.8357V28.2712L113.523 28.1093V33.1829C113.523 33.2929 113.523 33.4444 113.535 33.6364C113.539 33.7772 113.551 33.9176 113.571 34.057C113.587 34.1511 113.61 34.2612 113.64 34.4014C113.658 34.5106 113.695 34.616 113.749 34.7128C113.792 34.7806 113.843 34.8577 113.91 34.9443C113.968 35.0255 114.046 35.0903 114.137 35.1325C114.235 35.1727 114.336 35.2042 114.44 35.2266C114.835 35.3146 115.249 35.2586 115.608 35.0685C115.88 34.9295 116.126 34.7431 116.334 34.518C116.571 34.2573 116.756 33.9536 116.88 33.6232C117.024 33.2542 117.096 32.8611 117.094 32.4649V29.7353C117.094 29.6336 117.088 29.532 117.074 29.4313C117.063 29.3514 117.037 29.2743 116.997 29.2046C116.959 29.1425 116.926 29.0907 116.896 29.0474C116.855 28.9958 116.798 28.9589 116.734 28.9421L116.546 28.8771C116.47 28.8561 116.391 28.8437 116.312 28.8404C116.201 28.832 116.114 28.8282 116.053 28.8282H115.75V28.2636L118.618 28.1018V35.1927L119.96 35.2247V35.7892L117.229 35.9511L117.172 34.3637H117.14C116.846 34.8578 116.439 35.2743 115.952 35.5785C115.45 35.8897 114.869 36.05 114.279 36.0405C113.894 36.0507 113.51 35.9931 113.144 35.8702C112.859 35.7716 112.613 35.5843 112.441 35.3357C112.273 35.0841 112.155 34.8023 112.094 34.5058C112.021 34.127 111.989 33.7416 111.996 33.356Z" fill="white"/>
<path id="Vector_18" d="M120.196 33.259H120.826C120.864 33.4349 120.915 33.6081 120.976 33.7775C121.052 33.9799 121.149 34.1738 121.266 34.3562C121.391 34.5609 121.542 34.7488 121.715 34.9151C121.904 35.0883 122.125 35.2243 122.365 35.3159C122.644 35.4263 122.942 35.4813 123.242 35.4777C123.625 35.4935 124.001 35.3732 124.305 35.1381C124.438 35.0323 124.546 34.8966 124.618 34.7419C124.69 34.5872 124.725 34.4177 124.72 34.247C124.727 33.9707 124.642 33.7 124.478 33.4773C124.313 33.2583 124.098 33.0811 123.852 32.9598C123.576 32.822 123.292 32.7028 123 32.6032C122.687 32.4947 122.376 32.3827 122.067 32.2673C121.774 32.1581 121.491 32.024 121.222 31.8664C120.967 31.717 120.753 31.5085 120.596 31.2586C120.43 30.9915 120.346 30.6818 120.353 30.3675C120.349 30.0524 120.404 29.7393 120.515 29.4445C120.609 29.1911 120.753 28.9596 120.939 28.7642C121.116 28.5854 121.321 28.4367 121.546 28.3238C121.768 28.2095 122.004 28.1251 122.248 28.0726C122.481 28.0242 122.718 27.9999 122.956 28.0001C123.194 27.9977 123.432 28.0262 123.663 28.0848C123.836 28.1285 124.006 28.1838 124.171 28.2504C124.254 28.2922 124.343 28.3199 124.434 28.3323C124.5 28.3337 124.564 28.3121 124.615 28.2711C124.658 28.2409 124.693 28.2005 124.717 28.1535L124.749 28.0886H125.29C125.29 28.2724 125.285 28.4791 125.274 28.7087C125.264 28.9383 125.258 29.134 125.257 29.2958C125.257 29.4896 125.263 29.6543 125.274 29.7898C125.285 29.9244 125.29 30.0721 125.29 30.2273H124.717C124.685 30.0245 124.627 29.8268 124.543 29.6393C124.456 29.4483 124.341 29.2711 124.203 29.1133C124.048 28.9399 123.855 28.8041 123.64 28.7162C123.392 28.6133 123.125 28.5624 122.856 28.5666C122.452 28.5666 122.133 28.6732 121.899 28.8865C121.707 29.0547 121.584 29.2878 121.554 29.5412C121.523 29.7946 121.587 30.0503 121.733 30.2593C121.86 30.4344 122.028 30.5751 122.222 30.6686C122.425 30.7684 122.655 30.8681 122.913 30.9679C123.172 31.0676 123.437 31.1579 123.709 31.2388C123.984 31.3209 124.25 31.4296 124.505 31.5635C124.749 31.6892 124.981 31.8396 125.196 32.0123C125.408 32.192 125.576 32.4196 125.685 32.6766C125.814 32.9768 125.878 33.301 125.872 33.6279C125.877 33.9485 125.823 34.2673 125.715 34.5688C125.622 34.8291 125.479 35.0685 125.294 35.2736C125.115 35.4658 124.905 35.627 124.673 35.7506C124.437 35.8798 124.184 35.9749 123.922 36.0329C123.655 36.0903 123.383 36.119 123.11 36.1185C122.77 36.1218 122.432 36.0794 122.104 35.9924C121.859 35.93 121.619 35.846 121.389 35.7412C121.286 35.6819 121.174 35.6397 121.057 35.6161C121.026 35.6157 120.995 35.6225 120.966 35.6359C120.938 35.6492 120.912 35.6688 120.892 35.6932C120.851 35.7359 120.819 35.7869 120.798 35.8428L120.774 35.9153H120.192C120.192 35.7001 120.201 35.4411 120.22 35.1381C120.239 34.8351 120.248 34.576 120.248 34.3609C120.25 34.1701 120.24 33.9794 120.22 33.7897C120.202 33.6134 120.194 33.4362 120.196 33.259Z" fill="white"/>
<path id="Vector_19" d="M130.503 32.1092H131.1C131.117 32.2955 131.151 32.4797 131.201 32.6597C131.268 32.9026 131.348 33.1419 131.44 33.3767C131.546 33.6506 131.683 33.9114 131.848 34.1539C132.016 34.4041 132.208 34.6373 132.422 34.8502C132.646 35.0718 132.912 35.2467 133.205 35.3648C133.519 35.4947 133.855 35.5606 134.195 35.5587C134.83 35.5587 135.326 35.3928 135.681 35.0609C136.037 34.7291 136.215 34.2931 136.215 33.753C136.221 33.4341 136.157 33.1178 136.028 32.8262C135.914 32.5725 135.742 32.3492 135.526 32.1741C135.303 31.9986 135.06 31.849 134.803 31.7281C134.523 31.5958 134.236 31.4796 133.943 31.38C133.641 31.2771 133.339 31.172 133.038 31.0648C132.741 30.9585 132.453 30.8286 132.177 30.6762C131.913 30.5308 131.67 30.3507 131.454 30.1408C131.232 29.9173 131.061 29.6479 130.954 29.3513C130.823 28.9977 130.759 28.6228 130.766 28.2457C130.76 27.8289 130.83 27.4145 130.971 27.0225C131.088 26.6902 131.269 26.3844 131.505 26.123C131.724 25.8904 131.977 25.6928 132.256 25.5368C132.52 25.3848 132.805 25.2702 133.1 25.1962C133.371 25.1292 133.649 25.095 133.928 25.0946C134.287 25.0911 134.644 25.1335 134.991 25.2206C135.248 25.2823 135.499 25.3648 135.742 25.4672C135.844 25.5216 135.953 25.5624 136.065 25.5885C136.101 25.5882 136.136 25.5795 136.167 25.5631C136.199 25.5468 136.226 25.5233 136.247 25.4944C136.294 25.4364 136.331 25.3709 136.356 25.3006L136.381 25.1952H136.93C136.93 25.3784 136.924 25.6227 136.914 25.9282C136.903 26.2337 136.897 26.4752 136.897 26.6527C136.897 26.935 136.902 27.2389 136.914 27.5673C136.925 27.8957 136.93 28.1404 136.93 28.2965H136.378C136.357 28.0948 136.317 27.8956 136.257 27.7019C136.18 27.4621 136.079 27.2312 135.953 27.0131C135.819 26.7727 135.656 26.5496 135.468 26.3488C135.265 26.1396 135.022 25.973 134.754 25.8586C134.453 25.7275 134.128 25.6615 133.8 25.6648C133.336 25.6536 132.884 25.8151 132.532 26.1183C132.181 26.42 132.006 26.8249 132.006 27.333C132 27.6271 132.067 27.918 132.2 28.1799C132.324 28.4167 132.501 28.6215 132.717 28.7783C132.95 28.945 133.199 29.0864 133.461 29.1998C133.741 29.3253 134.037 29.4388 134.349 29.5405C134.661 29.6421 134.972 29.7512 135.282 29.8679C135.589 29.9831 135.886 30.1254 136.167 30.2932C136.44 30.4551 136.69 30.6525 136.911 30.8804C137.14 31.1268 137.316 31.4175 137.428 31.7347C137.563 32.1167 137.629 32.5198 137.622 32.925C137.632 33.4293 137.536 33.9302 137.34 34.3947C137.17 34.7963 136.901 35.1486 136.56 35.4194C136.229 35.6744 135.855 35.8691 135.457 35.9943C135.035 36.1266 134.594 36.1923 134.152 36.1891C133.787 36.1898 133.424 36.1558 133.066 36.0875C132.778 36.038 132.495 35.9634 132.221 35.8645C132.014 35.7836 131.828 35.7102 131.664 35.6424C131.563 35.5935 131.456 35.5593 131.345 35.5408C131.305 35.5397 131.265 35.5492 131.229 35.5684C131.194 35.5875 131.164 35.6156 131.142 35.65C131.098 35.7135 131.07 35.7873 131.061 35.8645L131.054 35.9699H130.505C130.505 35.7058 130.513 35.363 130.528 34.9414C130.545 34.5208 130.553 34.1774 130.553 33.913C130.553 33.6486 130.545 33.3437 130.528 32.9815C130.511 32.6192 130.503 32.3303 130.503 32.1092Z" fill="white"/>
<path id="Vector_20" d="M145.999 34.4493L146.54 34.5792C146.531 34.6325 146.519 34.6853 146.504 34.7372C146.462 34.8596 146.41 34.9786 146.35 35.0929C146.272 35.2552 146.172 35.4064 146.055 35.5427C145.913 35.6934 145.743 35.8146 145.554 35.8993C145.325 36.0092 145.073 36.0646 144.818 36.0611C144.049 36.0611 143.559 35.6669 143.348 34.8784H143.316C142.831 35.7315 142.085 36.1581 141.078 36.1581C140.777 36.16 140.479 36.1204 140.189 36.0404C139.905 35.9603 139.633 35.8375 139.385 35.6763C139.12 35.5011 138.909 35.2558 138.775 34.9678C138.617 34.6283 138.54 34.2571 138.548 33.8829C138.545 33.6064 138.597 33.332 138.702 33.0765C138.795 32.8511 138.931 32.6462 139.102 32.4734C139.285 32.2988 139.497 32.1577 139.728 32.0565C139.976 31.9425 140.233 31.8518 140.496 31.7855C140.794 31.7136 141.097 31.662 141.401 31.6312C141.746 31.5936 142.059 31.571 142.347 31.5625C142.635 31.5541 142.955 31.5503 143.316 31.5503L143.332 31.0798C143.337 30.7775 143.337 30.498 143.332 30.2415C143.329 30.0057 143.301 29.7709 143.247 29.5414C143.204 29.3493 143.129 29.1659 143.025 28.9985C142.926 28.8453 142.784 28.7244 142.617 28.6503C142.414 28.564 142.195 28.5226 141.975 28.529C141.754 28.5273 141.533 28.5529 141.318 28.6052C141.147 28.6441 140.984 28.7099 140.833 28.7999C140.734 28.8621 140.64 28.9326 140.552 29.0107C140.496 29.0602 140.445 29.1157 140.402 29.1763C140.435 29.1966 140.466 29.2196 140.495 29.245C140.555 29.31 140.604 29.384 140.641 29.4642C140.703 29.5799 140.735 29.7093 140.735 29.8406C140.737 29.9412 140.719 30.0413 140.682 30.1347C140.645 30.2281 140.588 30.3128 140.517 30.3835C140.441 30.4571 140.351 30.5144 140.253 30.552C140.154 30.5895 140.049 30.6065 139.943 30.6018C139.831 30.6038 139.719 30.5833 139.614 30.5416C139.509 30.5 139.414 30.4379 139.333 30.3591C139.246 30.2711 139.178 30.1658 139.135 30.0499C139.091 29.9339 139.072 29.8101 139.079 29.6863C139.079 29.1845 139.372 28.7717 139.959 28.448C140.546 28.1244 141.29 27.9622 142.189 27.9616C142.518 27.9566 142.846 27.9881 143.167 28.0557C143.415 28.1051 143.652 28.1954 143.87 28.3229C144.047 28.4318 144.206 28.5684 144.34 28.7275C144.467 28.8759 144.565 29.0478 144.627 29.2337C144.687 29.4187 144.736 29.6073 144.772 29.7983C144.81 29.9932 144.826 30.1917 144.82 30.3901C144.815 30.5871 144.815 30.7828 144.82 30.9773L144.74 34.3138C144.729 34.6046 144.774 34.8313 144.878 34.9932C144.923 35.0703 144.988 35.1338 145.066 35.1767C145.144 35.2196 145.233 35.2404 145.322 35.2369C145.398 35.2356 145.474 35.2171 145.542 35.1827C145.611 35.1484 145.671 35.099 145.718 35.0383C145.821 34.9225 145.898 34.7858 145.944 34.6375L145.999 34.4493ZM141.514 35.3159C141.961 35.3159 142.361 35.1349 142.714 34.773C143.067 34.4111 143.251 33.9334 143.268 33.34L143.3 32.1092C142.769 32.0977 142.239 32.1247 141.712 32.1901C141.295 32.2497 140.971 32.3495 140.742 32.4894C140.542 32.6019 140.378 32.771 140.273 32.9758C140.18 33.1956 140.135 33.4333 140.143 33.6721C140.143 34.1796 140.259 34.5804 140.491 34.8746C140.722 35.1688 141.063 35.3159 141.514 35.3159Z" fill="white"/>
<path id="Vector_21" d="M149.239 35.2105L150.573 35.2914V35.856C150.323 35.856 149.995 35.845 149.591 35.8231C149.187 35.8011 148.814 35.7904 148.472 35.7911C148.143 35.7911 147.776 35.8017 147.369 35.8231C146.963 35.8447 146.629 35.856 146.371 35.856V35.2914L147.729 35.2105V25.7118C147.733 25.5602 147.709 25.4091 147.66 25.2658C147.625 25.1661 147.572 25.0741 147.502 24.9948C147.419 24.9203 147.315 24.8725 147.204 24.8574C147.085 24.8302 146.965 24.8126 146.843 24.8047C146.744 24.7991 146.586 24.7962 146.374 24.7962V24.2129L149.242 24.051L149.239 35.2105Z" fill="white"/>
<path id="Vector_22" d="M151.773 33.356V29.7353C151.775 29.6226 151.765 29.5101 151.744 29.3994C151.729 29.3174 151.709 29.2364 151.684 29.1566C151.662 29.0877 151.614 29.0299 151.551 28.9948C151.483 28.9543 151.427 28.9214 151.381 28.9007C151.299 28.8687 151.211 28.8524 151.123 28.8527C150.998 28.8445 150.895 28.8389 150.816 28.8357C150.737 28.8357 150.604 28.8357 150.416 28.8357V28.2712L153.3 28.1093V33.1829C153.3 33.2929 153.3 33.4444 153.312 33.6364C153.316 33.7772 153.328 33.9176 153.349 34.057C153.365 34.1511 153.387 34.2612 153.417 34.4014C153.435 34.5107 153.472 34.6161 153.526 34.7128C153.569 34.7806 153.62 34.8577 153.688 34.9443C153.745 35.0257 153.823 35.0905 153.914 35.1325C154.012 35.1727 154.113 35.2042 154.217 35.2266C154.613 35.3146 155.027 35.2586 155.385 35.0685C155.658 34.9295 155.904 34.7431 156.111 34.518C156.348 34.2573 156.534 33.9536 156.657 33.6232C156.801 33.2542 156.874 32.8611 156.871 32.4649V29.7353C156.872 29.6336 156.865 29.532 156.851 29.4313C156.84 29.3515 156.814 29.2745 156.774 29.2046C156.737 29.1425 156.703 29.0907 156.674 29.0474C156.632 28.9958 156.575 28.9589 156.511 28.9421L156.324 28.8771C156.247 28.856 156.169 28.8437 156.09 28.8404C155.979 28.832 155.893 28.8282 155.831 28.8282H155.529V28.2636L158.396 28.1018V35.1927L159.738 35.2247V35.7892L157.007 35.9511L156.95 34.3637H156.918C156.624 34.8578 156.217 35.2743 155.73 35.5785C155.228 35.8897 154.648 36.05 154.057 36.0405C153.672 36.0507 153.288 35.9931 152.923 35.8702C152.637 35.7716 152.391 35.5843 152.219 35.3357C152.051 35.0841 151.933 34.8023 151.872 34.5058C151.799 34.127 151.766 33.7417 151.773 33.356Z" fill="white"/>
<path id="Vector_23" d="M162.257 28.9101V33.4049C162.257 33.6803 162.257 33.8801 162.257 34.0043C162.257 34.1285 162.267 34.2865 162.281 34.4747C162.284 34.6125 162.309 34.7489 162.353 34.8793C162.394 34.9705 162.441 35.0585 162.495 35.1428C162.548 35.2318 162.631 35.2987 162.73 35.331C162.842 35.3661 162.959 35.3826 163.077 35.3799C163.213 35.3796 163.347 35.3432 163.465 35.2745C163.584 35.2087 163.689 35.1209 163.776 35.0158C163.859 34.9132 163.934 34.8116 164.002 34.7119C164.058 34.631 164.108 34.5457 164.151 34.4569L164.191 34.3515L164.717 34.5462C164.706 34.5895 164.689 34.6403 164.665 34.7119C164.611 34.8364 164.548 34.9568 164.477 35.0722C164.381 35.2396 164.266 35.3947 164.133 35.5342C163.974 35.6887 163.788 35.8122 163.584 35.8984C163.337 36.0084 163.07 36.0636 162.8 36.0602C162.617 36.0608 162.433 36.0502 162.251 36.0282C162.099 36.0099 161.95 35.9746 161.806 35.9228C161.677 35.8739 161.561 35.8287 161.459 35.777C161.356 35.7282 161.266 35.656 161.197 35.5662C161.123 35.4721 161.062 35.3921 161.009 35.3188C160.95 35.2285 160.907 35.1285 160.883 35.0233C160.851 34.8991 160.825 34.7937 160.806 34.7081C160.784 34.5891 160.77 34.4687 160.766 34.3477C160.758 34.1934 160.753 34.0711 160.75 33.9789C160.747 33.8867 160.75 33.7577 160.75 33.5903V28.9101H159.303V28.2627H160.75V25.4926C161.012 25.4937 161.273 25.4666 161.529 25.4117C161.719 25.3762 161.904 25.322 162.083 25.2498L162.253 25.1774V28.2627H164.386V28.9101H162.257Z" fill="white"/>
<path id="Vector_24" d="M71.8247 42.0991V41.5411C72.0669 41.5411 72.4587 41.5465 73 41.5571C73.5414 41.5678 73.9169 41.5731 74.1266 41.5731C74.3143 41.5731 74.6698 41.5678 75.193 41.5571C75.7162 41.5465 76.1336 41.5411 76.4453 41.5411C78.8905 41.5411 80.1134 42.3024 80.114 43.8248C80.114 44.4878 79.9591 45.0154 79.6493 45.4074C79.3395 45.7995 78.8166 46.0956 78.0806 46.2957V46.3117C79.0232 46.4371 79.7429 46.7125 80.2398 47.1378C80.7367 47.5631 80.9846 48.2189 80.9833 49.1053C80.9833 50.0713 80.6303 50.8043 79.9244 51.3043C79.2184 51.8042 78.2571 52.0551 77.0405 52.057C76.665 52.057 76.1302 52.0517 75.4361 52.041C74.7421 52.0304 74.3071 52.025 74.1313 52.025C73.921 52.025 73.5455 52.0304 73.0047 52.041C72.464 52.0517 72.0722 52.057 71.8294 52.057V51.4925L73.3164 51.4595V42.132L71.8247 42.0991ZM76.374 42.0991H75.0006V46.1H76.527C76.8457 46.1095 77.1626 46.0501 77.4564 45.9259C77.695 45.8226 77.8967 45.649 78.0346 45.4281C78.166 45.2158 78.2612 44.983 78.3163 44.7394C78.3736 44.4678 78.401 44.1908 78.3979 43.9132C78.3954 42.7044 77.7208 42.0997 76.374 42.0991ZM76.527 46.6589H75.0006V51.4859H76.7936C78.367 51.4859 79.1536 50.6867 79.1536 49.0884C79.1536 48.2302 78.9258 47.6108 78.4702 47.23C78.0146 46.8493 77.3669 46.6589 76.527 46.6589Z" fill="white"/>
<path id="Vector_25" d="M89.0094 50.6427L89.5511 50.7726C89.5419 50.8259 89.5296 50.8787 89.5144 50.9307C89.4728 51.0533 89.4216 51.1726 89.3614 51.2873C89.283 51.4491 89.1839 51.6 89.0666 51.7361C88.9244 51.8866 88.7541 52.0078 88.5653 52.0927C88.336 52.2027 88.0845 52.2581 87.8303 52.2546C87.0592 52.2546 86.5689 51.8606 86.3592 51.0727H86.3273C85.8429 51.9252 85.0969 52.3518 84.0893 52.3524C83.789 52.3539 83.4899 52.3143 83.2003 52.2348C82.9158 52.1539 82.6449 52.0308 82.3967 51.8697C82.1318 51.6948 81.9205 51.4495 81.7865 51.1612C81.6287 50.8219 81.5513 50.4506 81.5603 50.0763C81.5561 49.8002 81.6082 49.5261 81.7133 49.2708C81.8069 49.0446 81.9444 48.8393 82.1179 48.6668C82.3008 48.4923 82.5127 48.3512 82.7441 48.2499C82.9909 48.1363 83.2477 48.0456 83.511 47.9789C83.809 47.9076 84.1113 47.856 84.416 47.8246C84.7602 47.787 85.0753 47.7641 85.3613 47.7559C85.643 47.7484 85.9697 47.7437 86.3311 47.7437L86.347 47.2732C86.3527 46.9715 86.3527 46.6921 86.347 46.4349C86.3439 46.1992 86.3156 45.9645 86.2626 45.7348C86.2186 45.5428 86.1435 45.3594 86.0401 45.1919C85.9406 45.0385 85.7987 44.9176 85.6317 44.8438C85.4289 44.7573 85.2099 44.7158 84.9896 44.7224C84.7682 44.7205 84.5474 44.7464 84.3325 44.7995C84.1614 44.8378 83.9976 44.9033 83.8471 44.9934C83.7478 45.0561 83.6537 45.1265 83.5655 45.2041C83.5095 45.2533 83.4594 45.3089 83.4162 45.3697C83.4491 45.3907 83.4805 45.4139 83.5101 45.4394C83.5695 45.5042 83.6186 45.5778 83.6556 45.6577C83.7178 45.7733 83.7501 45.9027 83.7495 46.034C83.7515 46.1352 83.7327 46.2357 83.6943 46.3293C83.6558 46.4229 83.5986 46.5075 83.5261 46.5779C83.4503 46.6515 83.3604 46.7089 83.2617 46.7464C83.1631 46.7839 83.0579 46.8009 82.9525 46.7962C82.8399 46.7981 82.7282 46.7776 82.6236 46.7359C82.519 46.6943 82.4237 46.6322 82.3432 46.5534C82.256 46.4657 82.1882 46.3605 82.1442 46.2448C82.1002 46.129 82.081 46.0053 82.0879 45.8816C82.0879 45.3798 82.3817 44.9667 82.9694 44.6424C83.557 44.3181 84.3002 44.1562 85.1989 44.1569C85.5272 44.1519 85.8549 44.1835 86.1762 44.251C86.4236 44.3008 86.6611 44.3911 86.8793 44.5182C87.0561 44.6274 87.2145 44.764 87.3487 44.9228C87.474 45.072 87.5696 45.2438 87.6303 45.429C87.6908 45.6139 87.7394 45.8025 87.7758 45.9936C87.8131 46.1882 87.8295 46.3863 87.8247 46.5845C87.819 46.7815 87.819 46.9772 87.8247 47.1716L87.7439 50.5082C87.7327 50.7999 87.7783 51.0266 87.881 51.1885C87.9264 51.2652 87.9916 51.3283 88.0697 51.371C88.1479 51.4138 88.2361 51.4346 88.325 51.4312C88.4017 51.4303 88.4773 51.412 88.5459 51.3776C88.6145 51.3432 88.6744 51.2937 88.7212 51.2327C88.8254 51.1176 88.9026 50.9807 88.9474 50.8319L89.0094 50.6427ZM84.5258 51.5093C84.9727 51.5093 85.3726 51.3287 85.7256 50.9674C86.0786 50.606 86.2629 50.128 86.2785 49.5334L86.3114 48.3026C85.781 48.2911 85.2504 48.3181 84.7239 48.3835C84.384 48.4182 84.0544 48.5202 83.7542 48.6837C83.5537 48.7961 83.3905 48.9649 83.2848 49.1692C83.1917 49.3891 83.1478 49.6268 83.1562 49.8655C83.1562 50.3736 83.272 50.7745 83.5035 51.068C83.7351 51.3616 84.0759 51.5087 84.5258 51.5093Z" fill="white"/>
<path id="Vector_26" d="M92.2434 51.405L94.0777 51.4859V52.0504C93.8274 52.0504 93.4247 52.0398 92.8695 52.0185C92.3144 51.9971 91.8525 51.9861 91.4839 51.9855C91.1497 51.9855 90.7792 51.9965 90.3724 52.0185C89.9659 52.0392 89.6336 52.0504 89.3745 52.0504V51.4859L90.716 51.405V45.8977C90.7179 45.7877 90.7097 45.6778 90.6916 45.5693C90.6782 45.4912 90.6594 45.4142 90.6353 45.3388C90.6118 45.2714 90.5643 45.2151 90.502 45.1807C90.4344 45.1402 90.3799 45.1092 90.3367 45.0866C90.255 45.0578 90.169 45.0429 90.0823 45.0424C89.9556 45.0339 89.8542 45.0292 89.7791 45.0264C89.704 45.0236 89.5688 45.0264 89.3745 45.0264V44.4618L92.1063 44.3L92.1626 46.2515H92.1786C92.3985 45.6741 92.7582 45.1606 93.2253 44.7573C93.6586 44.3945 94.2079 44.2004 94.7724 44.2106C95.0758 44.205 95.3691 44.32 95.5882 44.5305C95.8147 44.7444 95.928 45.048 95.928 45.4413C95.9364 45.7096 95.844 45.9712 95.6689 46.1743C95.5926 46.2676 95.4964 46.3426 95.3874 46.3937C95.2784 46.4448 95.1594 46.4708 95.039 46.4698C94.9397 46.4735 94.8407 46.4569 94.748 46.421C94.6553 46.3852 94.5709 46.3308 94.4998 46.2611C94.4287 46.1915 94.3726 46.1081 94.3347 46.016C94.2968 45.9239 94.2781 45.8251 94.2796 45.7255C94.2791 45.6033 94.3024 45.4822 94.3481 45.3689C94.3792 45.2795 94.4273 45.197 94.4898 45.1261L94.5537 45.0452C94.5274 44.9643 94.4194 44.9238 94.2307 44.9238C94.0048 44.9238 93.7745 45.0236 93.5398 45.223C93.2792 45.4563 93.063 45.7349 92.9014 46.0454C92.6874 46.4597 92.5296 46.9009 92.4321 47.3571C92.3047 47.9081 92.2417 48.472 92.2443 49.0376L92.2434 51.405Z" fill="white"/>
<path id="Vector_27" d="M96.0106 48.2059C96.0044 47.6735 96.0862 47.1438 96.2528 46.6383C96.3887 46.214 96.604 45.8196 96.8874 45.4762C97.1457 45.1763 97.4499 44.9193 97.7886 44.715C98.3929 44.3398 99.0895 44.1407 99.8004 44.1401C100.182 44.1345 100.563 44.1836 100.932 44.2859C101.206 44.357 101.464 44.4779 101.695 44.6425C101.87 44.7774 102.02 44.9436 102.135 45.1328C102.235 45.2888 102.31 45.4596 102.358 45.639C102.392 45.7849 102.41 45.9342 102.41 46.084C102.424 46.38 102.321 46.6696 102.123 46.8895C102.035 46.9868 101.927 47.0642 101.806 47.1166C101.686 47.169 101.556 47.1952 101.424 47.1934C101.317 47.1965 101.21 47.178 101.111 47.1391C101.011 47.1001 100.919 47.0415 100.842 46.9666C100.766 46.8942 100.706 46.8066 100.665 46.7093C100.625 46.6121 100.605 46.5074 100.608 46.4021C100.606 46.2826 100.628 46.1639 100.672 46.053C100.707 45.9641 100.762 45.885 100.834 45.8225C100.895 45.774 100.96 45.7306 101.028 45.6926C101.079 45.6636 101.133 45.6406 101.19 45.6239L101.255 45.6164C101.252 45.5289 101.23 45.4431 101.19 45.3652C101.136 45.2582 101.068 45.1596 100.986 45.0725C100.874 44.9575 100.735 44.8716 100.582 44.8223C100.381 44.7512 100.169 44.7167 99.9562 44.7206C99.6157 44.7127 99.2781 44.7849 98.9705 44.9314C98.7121 45.0544 98.4867 45.2377 98.3134 45.4659C98.1408 45.7105 98.0113 45.9829 97.9304 46.2713C97.8374 46.5762 97.7745 46.8894 97.7426 47.2066C97.7135 47.5096 97.6985 47.8464 97.6985 48.219C97.6985 48.4401 97.6985 48.6255 97.7069 48.7742C97.7154 48.9228 97.7285 49.127 97.7548 49.3896C97.7749 49.6136 97.8142 49.8356 97.8722 50.0529C97.9325 50.2568 98.0111 50.4549 98.1068 50.6448C98.1989 50.8394 98.3262 51.0152 98.4823 51.1632C98.6451 51.3074 98.8324 51.4212 99.0353 51.4991C99.2801 51.5939 99.5408 51.6406 99.8032 51.6365C100.084 51.6364 100.363 51.5814 100.623 51.4747C100.866 51.3803 101.092 51.2478 101.294 51.0823C101.464 50.9378 101.625 50.7822 101.775 50.6165C101.889 50.4922 101.994 50.3595 102.089 50.2195L102.183 50.0576L102.66 50.3568C102.633 50.4114 102.592 50.481 102.538 50.5676C102.427 50.7311 102.307 50.8882 102.178 51.0381C102 51.2549 101.8 51.4529 101.581 51.629C101.324 51.8259 101.039 51.9844 100.736 52.0994C100.39 52.2393 100.019 52.3108 99.6455 52.3102C98.4983 52.3102 97.6055 51.958 96.9672 51.2535C96.3288 50.5491 96.01 49.5332 96.0106 48.2059Z" fill="white"/>
<path id="Vector_28" d="M109.007 50.0595L109.484 50.3587C109.456 50.4133 109.416 50.4829 109.362 50.5695C109.251 50.7327 109.131 50.8898 109.003 51.0399C108.824 51.2566 108.624 51.4546 108.405 51.6308C108.147 51.8278 107.863 51.9862 107.56 52.1013C107.214 52.241 106.844 52.3126 106.47 52.3121C105.322 52.3121 104.429 51.9598 103.791 51.2554C103.153 50.551 102.834 49.5373 102.834 48.2143C102.828 47.686 102.91 47.1603 103.076 46.6589C103.21 46.2398 103.42 45.8488 103.694 45.5053C103.94 45.21 104.228 44.9534 104.55 44.7441C104.842 44.5498 105.16 44.3996 105.496 44.2981C105.786 44.2125 106.087 44.1679 106.389 44.1655C106.841 44.1569 107.289 44.2309 107.714 44.3838C108.043 44.4962 108.343 44.6785 108.595 44.9182C108.803 45.1347 108.972 45.3872 109.091 45.6634C109.205 45.9081 109.287 46.1665 109.334 46.4322C109.369 46.6601 109.387 46.8903 109.387 47.1209C109.387 47.2508 109.381 47.3844 109.37 47.5218C109.36 47.6592 109.348 47.7636 109.338 47.8332L109.322 47.9471H104.522V48.2915C104.522 48.4938 104.522 48.6405 104.522 48.7328C104.522 48.825 104.534 48.9783 104.55 49.1938C104.56 49.3639 104.582 49.533 104.615 49.7C104.641 49.8214 104.681 49.9823 104.732 50.178C104.77 50.3421 104.83 50.5003 104.91 50.6485C104.989 50.7832 105.077 50.913 105.172 51.0371C105.27 51.1713 105.394 51.2842 105.536 51.3692C105.866 51.5567 106.239 51.6541 106.618 51.6515C106.9 51.6514 107.179 51.5965 107.439 51.4897C107.682 51.3956 107.908 51.2631 108.109 51.0973C108.28 50.9505 108.441 50.7923 108.591 50.624C108.705 50.4994 108.811 50.3667 108.906 50.227L109.007 50.0595ZM106.325 44.7225C105.274 44.7225 104.685 45.6079 104.555 47.3788H107.698C107.742 47.1493 107.764 46.9161 107.763 46.6825C107.763 45.3764 107.283 44.7234 106.325 44.7234V44.7225Z" fill="white"/>
<path id="Vector_29" d="M112.512 51.4049L113.845 51.4858V52.0504C113.597 52.0504 113.27 52.0391 112.863 52.0184C112.456 51.9977 112.084 51.9855 111.744 51.9855C111.404 51.9855 111.048 51.9968 110.642 52.0184C110.235 52.04 109.902 52.0504 109.644 52.0504V51.4858L111.002 51.4049V41.9015C111.006 41.7498 110.982 41.5986 110.932 41.4555C110.898 41.3557 110.845 41.2637 110.775 41.1845C110.691 41.1104 110.587 41.0627 110.476 41.0471C110.357 41.0204 110.237 41.0028 110.116 40.9944C110.017 40.9888 109.859 40.9859 109.647 40.9859V40.4035L112.515 40.2407L112.512 51.4049Z" fill="white"/>
<path id="Vector_30" d="M117.964 52.2707C117.486 52.274 117.01 52.1974 116.556 52.0439C116.117 51.8925 115.71 51.6591 115.356 51.3561C114.975 51.0183 114.682 50.5913 114.504 50.1131C114.287 49.5349 114.181 48.9205 114.193 48.3027C114.183 47.678 114.292 47.0569 114.512 46.4726C114.694 45.9791 114.987 45.5344 115.369 45.1732C115.719 44.852 116.126 44.5992 116.568 44.428C117.015 44.257 117.489 44.1706 117.966 44.173C118.447 44.1693 118.925 44.2473 119.38 44.4035C119.821 44.5572 120.229 44.792 120.584 45.096C120.966 45.4344 121.26 45.861 121.441 46.339C121.661 46.9137 121.768 47.5255 121.756 48.1409C121.766 48.7663 121.661 49.3881 121.444 49.9748C121.267 50.4678 120.978 50.9129 120.599 51.2751C120.25 51.5992 119.841 51.8522 119.395 52.0204C118.937 52.1898 118.452 52.2746 117.964 52.2707ZM117.964 51.7061C119.322 51.7061 120.001 50.5456 120.001 48.2246C120.001 45.9037 119.322 44.7432 117.964 44.7432C116.618 44.7432 115.945 45.9037 115.945 48.2246C115.945 50.5456 116.618 51.7055 117.964 51.7042V51.7061Z" fill="white"/>
<path id="Vector_31" d="M124.944 51.4049L126.286 51.4858V52.0504C126.038 52.0504 125.709 52.0391 125.3 52.0184C124.891 51.9977 124.519 51.9854 124.185 51.9854C123.85 51.9854 123.481 51.9967 123.074 52.0184C122.668 52.04 122.334 52.0504 122.076 52.0504V51.4858L123.417 51.4049V45.8976C123.418 45.8095 123.412 45.7215 123.401 45.6341C123.39 45.556 123.379 45.4874 123.369 45.4281C123.359 45.3712 123.332 45.3186 123.292 45.2775C123.252 45.2371 123.22 45.2023 123.198 45.1731C123.156 45.134 123.104 45.1084 123.048 45.0997L122.879 45.0555C122.804 45.0401 122.729 45.0319 122.653 45.031C122.539 45.0254 122.452 45.0225 122.393 45.0225H122.079V44.458L124.81 44.2961L124.866 45.8675H124.882C125.188 45.3743 125.601 44.9563 126.09 44.6443C126.586 44.3356 127.159 44.1768 127.743 44.187C128.449 44.187 129.005 44.426 129.411 44.904C129.817 45.382 130.02 46.1121 130.021 47.0945V51.4049L131.378 51.4858V52.0504C131.12 52.0504 130.789 52.0391 130.384 52.0184C129.98 51.9977 129.612 51.9854 129.277 51.9854C128.943 51.9854 128.574 51.9967 128.171 52.0184C127.767 52.04 127.436 52.0504 127.177 52.0504V51.4858L128.518 51.4049V47.5744C128.518 46.6334 128.427 45.965 128.244 45.5692C128.056 45.1731 127.711 44.9745 127.193 44.9745C126.922 44.9793 126.656 45.0486 126.417 45.1768C126.146 45.3174 125.902 45.5036 125.694 45.7273C125.46 45.9859 125.278 46.2871 125.157 46.6146C125.016 46.9797 124.945 47.3682 124.947 47.7597L124.944 51.4049Z" fill="white"/>
<path id="Vector_32" d="M138.913 50.6428L139.454 50.7727C139.445 50.8261 139.434 50.8789 139.418 50.9308C139.376 51.0534 139.325 51.1726 139.264 51.2874C139.186 51.4494 139.087 51.6003 138.969 51.7362C138.827 51.8871 138.657 52.0083 138.468 52.0928C138.239 52.2028 137.987 52.2582 137.733 52.2547C136.963 52.2547 136.473 51.8607 136.263 51.0728H136.23C135.746 51.9253 135 52.3519 133.992 52.3525C133.692 52.354 133.393 52.3144 133.104 52.2349C132.819 52.154 132.548 52.031 132.299 51.8698C132.035 51.6946 131.824 51.4493 131.689 51.1613C131.532 50.8218 131.455 50.4506 131.463 50.0764C131.459 49.8002 131.512 49.5262 131.617 49.2709C131.709 49.0453 131.845 48.84 132.017 48.6669C132.2 48.4926 132.412 48.3516 132.643 48.25C132.89 48.1364 133.147 48.0457 133.411 47.979C133.709 47.9075 134.011 47.856 134.316 47.8247C134.66 47.7871 134.973 47.7645 135.261 47.756C135.549 47.7476 135.87 47.7438 136.23 47.7438L136.247 47.2733C136.252 46.9716 136.252 46.6922 136.247 46.435C136.244 46.1992 136.215 45.9645 136.162 45.7349C136.118 45.5427 136.043 45.3591 135.939 45.192C135.84 45.0388 135.698 44.9178 135.532 44.8439C135.329 44.7576 135.11 44.7162 134.89 44.7225C134.668 44.7206 134.447 44.7465 134.232 44.7996C134.062 44.8379 133.898 44.9033 133.748 44.9935C133.649 45.0562 133.555 45.1267 133.466 45.2042C133.411 45.254 133.361 45.3095 133.317 45.3698C133.35 45.3905 133.382 45.4138 133.411 45.4395C133.471 45.504 133.52 45.5777 133.556 45.6578C133.619 45.7734 133.651 45.9028 133.65 46.0341C133.653 46.1347 133.635 46.2348 133.598 46.3282C133.56 46.4216 133.504 46.5063 133.433 46.5771C133.357 46.6506 133.267 46.7079 133.168 46.7455C133.07 46.783 132.964 46.8 132.859 46.7953C132.746 46.7973 132.634 46.7768 132.53 46.7351C132.425 46.6935 132.329 46.6314 132.249 46.5526C132.162 46.4648 132.094 46.3595 132.05 46.2438C132.006 46.1281 131.987 46.0044 131.994 45.8808C131.994 45.3789 132.288 44.9659 132.875 44.6415C133.462 44.3172 134.205 44.1554 135.104 44.156C135.433 44.151 135.761 44.1826 136.083 44.2501C136.33 44.3001 136.568 44.3904 136.786 44.5173C136.963 44.6266 137.121 44.7631 137.255 44.922C137.382 45.0707 137.48 45.2425 137.542 45.4282C137.603 45.6132 137.651 45.8017 137.688 45.9927C137.725 46.1874 137.741 46.3855 137.736 46.5836C137.73 46.7806 137.73 46.9763 137.736 47.1708L137.655 50.5073C137.645 50.799 137.69 51.0258 137.792 51.1876C137.838 51.2645 137.903 51.3276 137.981 51.3703C138.06 51.413 138.148 51.4338 138.237 51.4304C138.314 51.4293 138.389 51.4109 138.458 51.3765C138.526 51.3421 138.586 51.2927 138.633 51.2319C138.737 51.1163 138.814 50.9795 138.86 50.831L138.913 50.6428ZM134.429 51.5094C134.875 51.5094 135.275 51.3288 135.628 50.9675C135.981 50.6061 136.166 50.1281 136.182 49.5335L136.214 48.3027C135.684 48.2912 135.153 48.3182 134.627 48.3836C134.287 48.4183 133.957 48.5203 133.657 48.6838C133.456 48.7957 133.293 48.9646 133.188 49.1693C133.094 49.3891 133.05 49.6268 133.058 49.8656C133.058 50.3737 133.174 50.7746 133.405 51.0681C133.637 51.3617 133.978 51.5088 134.429 51.5094Z" fill="white"/>
</g>
</g>
</svg>